<svg width="51" height="122" viewBox="0 0 51 122" fill="none" xmlns="http://www.w3.org/2000/svg">
<path d="M45.8051 80.5729C45.9275 73.7149 45.9275 66.7344 45.8051 59.8764C45.8051 55.2228 45.6826 50.5691 45.5601 45.9155C45.3152 38.935 44.9477 31.8321 43.233 25.0966C42.3757 21.9125 41.2733 18.8509 39.6811 16.0342C38.3338 13.585 36.3742 10.6458 34.0471 9.05378C32.9448 8.31899 31.5975 7.9516 30.4952 8.31899C29.6378 6.48203 28.7805 4.64507 27.5557 3.1755C26.2084 1.461 24.3713 0.236359 22.1666 0.603751C19.8395 0.971144 19.2271 3.29796 18.2473 5.13493C17.6349 6.48203 16.9 7.70667 16.2876 9.05378C16.0427 8.31899 15.7977 7.58421 15.0628 7.09435C12.8582 5.37985 10.1637 7.58421 8.81641 9.29871C5.50948 13.4625 4.7746 19.4632 4.7746 24.7292C4.7746 30.2401 4.7746 35.8734 4.7746 41.3843C4.7746 54.3655 4.7746 67.4692 4.7746 80.4504C4.7746 80.6953 4.7746 80.9402 4.7746 81.3076V81.4301C2.81494 85.2265 1.71263 89.7577 1.10024 93.799C-0.369509 103.351 1.46767 113.883 9.79625 119.761C12.0009 121.231 14.2055 122.211 16.6551 120.864C17.8799 120.129 18.9822 119.149 20.0845 118.292C21.4317 117.067 22.9015 115.965 24.2488 114.74C24.4937 114.495 24.6162 114.251 24.4937 114.006C24.9836 114.495 25.596 114.863 26.086 115.353C27.8007 116.822 29.5154 118.414 31.475 119.516C33.6796 120.741 36.3742 121.598 38.9463 120.986C41.2734 120.496 42.9881 118.904 44.3353 117.067C47.8872 112.291 50.0918 106.903 50.0918 101.024C50.0918 95.1461 49.4794 89.0229 47.1523 83.6345C46.7849 82.5323 46.295 81.5526 45.8051 80.5729ZM19.2271 6.97189C19.5946 6.11464 20.0845 5.25739 20.4519 4.40014C20.8194 3.66536 21.1868 2.68564 22.0441 2.31825C23.8813 1.58346 25.4736 3.29796 26.4534 4.5226C27.5557 5.99217 28.413 7.58421 29.0254 9.29871C28.7805 9.6661 28.5355 10.156 28.413 10.6458C27.5557 14.0748 28.5355 17.7487 29.1479 21.1777C30.3727 28.7705 30.1278 36.6082 28.413 44.0785C28.0456 45.793 27.5557 47.5075 26.9433 49.222C26.5759 50.4467 25.841 52.896 24.6162 53.3858C22.6565 54.2431 21.3093 49.467 20.9418 48.1199C19.8395 44.0785 19.3496 39.7923 18.7372 35.506C18.1248 30.7299 17.7574 25.8314 17.2675 20.9328C17.0225 17.8712 16.7775 14.9321 16.5326 11.8705C16.5326 11.8705 16.5326 11.8705 16.5326 11.748C17.5124 10.4009 18.3698 8.68639 19.2271 6.97189ZM47.6423 106.903C46.9074 109.474 45.4376 111.801 44.0904 114.128C42.9881 115.965 41.6408 117.924 39.6811 118.782C37.1091 119.884 34.0471 118.904 31.8425 117.435C29.8828 116.21 28.2906 114.618 26.5759 113.148C24.4937 111.311 22.2891 109.597 19.962 108.005C18.9822 107.393 18.1248 108.862 19.1047 109.474C20.6969 110.577 22.2891 111.801 23.7588 113.026C23.5139 113.026 23.2689 113.026 23.1465 113.271C21.3093 114.863 19.4721 116.455 17.5124 118.047C16.5326 118.904 15.4303 119.639 14.083 119.639C12.8582 119.516 11.7559 118.782 10.8985 118.047C7.34666 115.598 4.89709 111.801 3.6723 107.76C2.32503 103.596 2.32502 99.3099 2.93742 95.0236C3.54981 90.6149 4.65212 86.2062 6.61178 82.2874C7.59162 80.3279 8.69394 78.246 11.021 77.8786C12.2458 77.6337 13.4706 77.6337 14.6954 77.7562C15.7977 77.8786 15.7977 76.0417 14.6954 76.0417C13.4706 75.9192 12.2458 75.9192 11.021 76.1641C9.06137 76.4091 7.95906 77.2663 6.73427 78.6134C6.73427 68.5714 6.73427 58.6518 6.73427 48.6097C6.73427 41.9966 6.73427 35.2611 6.73427 28.648C6.73427 25.3415 6.61178 22.035 7.22418 18.7284C7.59162 16.4016 8.20402 13.9523 9.42881 11.8705C10.5311 9.91103 14.328 6.2371 14.9404 10.2784C15.3078 13.0951 15.4303 16.0342 15.6752 18.8509C16.4101 27.9133 17.0225 36.9756 18.7372 45.793C19.1047 47.5075 19.4721 49.0996 19.962 50.6916C20.5744 52.5286 21.7992 55.3452 24.0038 55.4677C26.3309 55.5902 27.6782 53.1409 28.413 51.3039C29.6378 47.9974 30.4952 44.4459 31.1076 41.0169C32.2099 34.1589 32.0874 27.3009 30.9851 20.4429C30.6177 18.7284 28.5355 8.31899 32.6998 10.4009C34.1696 11.1357 35.2719 12.7277 36.2517 13.9523C37.2315 15.2995 38.0889 16.769 38.8238 18.2386C42.1307 24.7292 43.1105 32.077 43.6005 39.18C43.9679 44.0785 44.0904 48.9771 44.2129 53.9981C44.3353 62.0808 44.3353 70.2859 44.3353 78.3685C43.7229 77.6337 42.9881 77.1439 42.2532 76.654C40.7834 75.9192 38.9462 75.7967 37.354 75.9192C36.2517 76.0417 36.2517 77.7562 37.354 77.6337C38.5788 77.5112 39.8036 77.5113 40.9059 78.0011C43.1105 78.7359 44.5803 81.4301 45.5601 83.3895C47.7647 88.1656 48.4996 93.4316 48.7446 98.5751C48.4996 101.392 48.4996 104.208 47.6423 106.903Z" fill="#B8B8B8"/>
</svg>
