<svg width="50" height="116" viewBox="0 0 50 116" fill="none" xmlns="http://www.w3.org/2000/svg">
<path d="M45.2153 83.3904C44.6029 81.431 43.7455 79.4716 42.7657 77.6346C42.2758 76.7774 41.7859 75.6752 41.1735 74.818C41.051 65.1433 40.8061 55.4686 40.6836 45.794C40.5611 37.2215 41.296 28.1591 37.4991 20.1989C36.1518 17.5047 34.4371 15.1779 32.6 12.8511C31.4976 11.3815 30.2729 9.78949 29.0481 8.31992C28.1907 7.34021 27.3334 5.62571 25.9861 5.13585C25.6187 5.01339 25.2512 4.89093 25.0063 4.89093C23.659 3.42136 22.0668 1.95179 20.3521 1.09454C19.3722 0.604679 18.1474 0.114823 16.9227 0.237287C15.5754 0.482215 14.718 1.58439 14.2281 2.80903C13.7382 4.03368 13.8607 5.13585 14.1056 6.36049C13.1258 6.23803 12.146 6.48296 11.1661 7.7076C8.34912 11.0141 8.59408 16.0352 8.59408 19.954C8.59408 25.0975 8.59408 30.1185 8.59408 35.262C8.59408 45.6715 8.71656 56.2034 8.71656 66.6129C8.71656 68.9397 8.71656 71.2665 8.71656 73.5933C7.36929 74.573 6.63442 76.0426 6.26698 77.6346C5.77706 79.5941 5.40963 81.5535 4.79724 83.3904C4.06236 85.4723 3.08253 87.4318 2.34766 89.5136C1.61278 91.4731 0.877912 93.31 0.877912 95.3919C0.755433 98.0861 1.61278 100.658 2.59261 103.107C4.30732 107.271 6.26699 112.047 10.6762 113.762C12.8809 114.619 15.2079 114.374 17.1676 113.027C18.7598 111.925 20.3521 109.965 22.4342 109.843C23.1691 110.945 24.0264 112.047 25.0063 113.027C26.721 114.864 29.1706 115.476 31.6201 115.476C36.7642 115.476 41.1735 112.17 44.6029 108.618C48.5222 104.454 50.1145 99.4333 48.6447 93.9224C47.6649 90.2484 46.3176 86.8194 45.2153 83.3904ZM15.9428 3.05396C16.1878 2.56411 16.5552 2.07425 17.0451 1.95178C17.535 1.82932 18.025 1.95179 18.5149 2.07425C20.2296 2.68657 21.5769 3.91121 22.9241 5.13585C21.0869 6.23803 20.4745 9.05471 20.842 11.3815C21.2094 13.5859 22.0668 15.6678 22.6792 17.8721C23.2916 19.954 23.659 22.0359 24.0264 24.1178C25.3737 32.9352 25.2512 42.2425 24.1489 51.1824C24.0264 51.6722 23.7815 53.0193 23.2916 52.1621C23.1691 51.9172 23.1691 51.5498 23.1691 51.3048C23.1691 51.1824 23.1691 51.0599 23.1691 50.9375C23.1691 50.3251 23.0466 49.5903 23.0466 48.978C22.8016 46.5287 22.6792 43.957 22.4342 41.5077C21.9443 35.1396 21.4544 28.7714 20.9645 22.4033C20.7195 18.8518 20.597 15.1779 19.1273 11.8714C18.5149 10.4018 17.2901 8.56485 15.9428 7.34021C15.6979 5.87064 15.3304 4.40107 15.9428 3.05396ZM47.2974 99.0659C47.0525 101.393 46.0726 103.475 44.7254 105.434C42.0308 109.108 38.234 112.292 33.7023 113.394C31.2527 114.006 28.0682 113.884 26.2311 111.925C25.2512 110.945 24.3939 109.843 23.659 108.741C23.659 108.496 23.414 108.373 23.2916 108.251C22.4342 106.904 21.5769 105.434 20.9645 103.964C20.4745 102.985 19.0048 103.842 19.4947 104.822C19.9846 105.924 20.597 107.026 21.3319 108.128C18.7598 108.863 17.1676 111.557 14.4731 112.292C9.6964 113.517 6.7569 108.128 5.16468 104.577C4.18484 102.372 3.20501 100.168 2.83757 97.8412C2.47014 95.6369 2.83757 93.6774 3.44997 91.5955C4.55228 88.289 6.26698 85.2274 7.12434 81.7984C7.61425 79.839 7.73673 77.6346 8.96152 75.9201C10.3088 74.0832 13.0033 74.2056 14.963 74.2056C16.0653 74.2056 16.0653 72.4911 14.963 72.4911C13.4932 72.3687 11.901 72.3687 10.5537 72.8585C10.5537 63.5513 10.5537 54.1215 10.4313 44.8142C10.4313 39.7932 10.4313 34.8946 10.3088 29.8736C10.3088 25.0975 10.0638 20.3214 10.4313 15.6678C10.5537 13.4634 10.9212 10.7692 12.5134 8.93224C13.1258 8.19746 13.8607 8.19746 14.5956 8.56485C14.718 8.68731 14.8405 8.80978 14.963 8.80978C16.3103 9.78949 17.4126 12.1163 17.9025 13.096C19.2498 16.2801 19.2498 19.954 19.4947 23.2605C19.9846 29.3838 20.3521 35.507 20.842 41.6302C20.9645 43.957 21.2094 46.4063 21.3319 48.7331C21.4544 49.8353 21.4544 51.1824 21.5769 52.2846C21.8218 53.6317 22.9241 54.9788 24.3939 54.3664C25.8636 53.7541 25.8636 51.6722 25.9861 50.3251C26.476 46.1613 26.721 41.8751 26.721 37.5889C26.721 33.3026 26.476 29.1388 25.9861 24.975C25.3737 20.6888 24.1489 16.8924 23.0466 12.8511C22.5567 11.1366 21.6993 6.48296 24.6388 6.48296C26.1086 6.48296 27.2109 8.56485 28.0682 9.66703C29.9054 11.9938 31.8651 14.4431 33.4573 16.8924C34.4371 18.2395 35.2945 19.7091 36.0294 21.1787C36.8867 23.1381 37.3766 25.3424 37.8666 27.3019C38.9689 31.4656 38.7239 35.9968 38.7239 40.2831C38.8464 49.5903 39.0913 58.7752 39.2138 68.0824C39.2138 69.6745 39.2138 71.144 39.3363 72.7361C39.2138 72.6136 39.0914 72.4911 38.8464 72.4911C37.2542 71.7564 35.2945 71.8788 33.5798 72.1237C32.4775 72.2462 32.9674 73.9607 34.0697 73.8382C35.2945 73.5933 36.7642 73.4709 37.8666 73.9607C39.3363 74.573 40.1937 76.6549 40.8061 77.8796C43.0107 82.0433 44.3579 86.452 45.7052 90.9832C46.685 93.6774 47.5424 96.3716 47.2974 99.0659Z" fill="#B8B8B8"/>
</svg>
