<svg width="47" height="114" viewBox="0 0 47 114" fill="none" xmlns="http://www.w3.org/2000/svg">
<path d="M41.5435 77.9615C41.0535 76.6144 40.3187 75.1448 39.3388 74.1651C39.2164 64.3679 38.9714 54.6933 38.7264 44.8961C38.604 40.2425 39.0939 35.3439 38.114 30.8128C37.5016 27.5062 36.3993 24.1997 35.1745 21.0156C34.0722 18.3214 32.8474 15.8721 31.0103 13.5453C30.0304 12.3207 29.0506 11.096 28.0708 9.87139C27.3359 8.89168 26.4785 7.54457 25.2537 7.05472C24.5189 6.80979 23.9065 6.68732 23.2941 6.80979C22.3143 5.58515 21.0895 4.60543 19.8647 3.62572C18.6399 2.52354 17.2926 1.17644 15.5779 0.809044C13.8632 0.319187 12.271 1.2989 11.5361 2.76847C10.6787 4.60543 11.1687 6.4424 11.4136 8.40182C11.4136 8.52429 11.4136 8.64675 11.5361 8.76921C10.4338 9.504 9.57644 10.8511 9.08652 12.0757C7.37181 16.2395 7.86173 21.2606 7.86173 25.6693C7.86173 31.1802 7.86173 36.691 7.86173 42.3244C7.86173 53.1012 7.98421 63.8781 7.98421 74.6549C7.00438 75.2673 6.2695 76.247 5.77959 77.5941C5.04471 79.431 4.92224 81.5129 4.30984 83.3499C3.45249 85.5542 2.10522 87.6361 1.24787 89.8405C-0.46684 94.3717 1.37034 99.0253 3.20753 103.312C4.79976 107.108 7.12686 111.149 11.5361 112.129C13.6182 112.619 15.5779 112.129 17.2926 110.782C18.8848 109.68 20.3546 107.843 22.4367 107.843C22.5592 108.088 22.8042 108.333 22.9266 108.578C24.3964 110.414 26.2336 112.374 28.4382 113.231C33.2149 115.068 38.114 110.537 40.9311 107.23C43.993 103.801 46.1977 99.3927 46.0752 94.7391C45.9527 92.0448 45.0953 89.3506 44.238 86.7789C43.5031 83.5948 42.6458 80.7781 41.5435 77.9615ZM13.1283 3.62572C13.3733 3.13586 13.7407 2.64601 14.2306 2.40108C14.843 2.15615 15.4554 2.40108 16.0678 2.64601C17.2926 3.38079 18.3949 4.3605 19.3748 5.21775C20.2321 5.95254 20.967 6.68732 21.7019 7.54457C20.5995 8.52429 19.9872 10.3612 20.1096 12.0757C20.2321 14.0352 20.8445 15.9946 21.4569 17.8316C22.1918 20.1584 22.8042 22.4852 23.1716 24.812C23.9065 29.3432 23.784 33.9968 23.539 38.6505C23.4166 40.9773 23.1716 43.1816 22.9266 45.386C22.8042 46.4882 22.6817 47.5904 22.5592 48.815C22.5592 49.1824 22.5592 50.407 22.3143 50.652C21.4569 51.6317 21.5794 50.1621 21.5794 49.7947C21.3344 46.1208 21.3344 42.4469 21.2119 38.7729C20.967 32.8947 20.8445 27.1388 20.3546 21.383C19.9872 17.2192 19.1298 13.4229 16.4353 10.1163C15.7004 9.13661 14.7206 8.15689 13.3733 8.15689C13.1283 6.68732 12.5159 5.09529 13.1283 3.62572ZM43.7481 99.5152C42.1558 104.169 37.8691 109.067 33.3374 111.027C29.9079 112.619 27.3359 110.537 25.2537 108.088C23.2941 105.883 21.7019 103.434 20.4771 100.74C19.9872 99.7601 18.5174 100.617 19.0073 101.597C19.7422 103.067 20.4771 104.536 21.4569 106.006C18.0275 106.741 16.0678 111.149 12.026 110.17C9.57644 109.557 7.73925 107.598 6.51446 105.393C5.16719 103.067 4.06488 100.495 3.33001 97.9231C2.47266 94.984 2.35018 92.1673 3.69745 89.2282C4.67728 87.1463 5.90207 85.1869 6.51446 82.9825C7.12686 81.0231 7.12686 78.6962 8.22917 76.9818C9.57644 74.8999 12.271 75.0223 14.3531 75.1448C15.4554 75.1448 15.4554 73.4303 14.3531 73.4303C12.7609 73.3078 11.2911 73.4303 9.94387 73.9201C9.94387 55.9179 9.69892 38.0381 9.82139 20.0359C9.82139 18.0765 9.82139 16.1171 10.4338 14.2801C10.6787 13.3004 11.0462 12.1982 11.7811 11.341C12.271 10.6062 12.6384 10.3612 13.4958 10.4837C14.3531 10.6062 14.5981 10.9736 15.2105 11.7084C17.905 14.8924 18.3949 18.8113 18.7624 22.8526C19.1298 28.4859 19.3748 34.2418 19.4972 39.8751C19.6197 43.3041 19.6197 46.7331 19.7422 50.1621C19.7422 51.2643 19.9872 52.6114 21.0895 53.1012C22.3143 53.7136 23.539 52.9788 23.9065 51.7541C24.5189 50.0396 24.5189 47.9577 24.6414 46.2432C24.8863 44.0389 25.1313 41.7121 25.3762 39.5077C25.7437 35.2215 25.7437 30.8128 25.2537 26.5265C25.0088 24.5671 24.6414 22.4852 24.1514 20.5258C23.6615 18.4439 22.8042 16.4845 22.3143 14.4026C21.9468 12.6881 21.4569 8.64675 24.1514 8.76921C25.6212 8.76921 26.4785 10.6062 27.3359 11.5859C29.0506 13.7902 31.0103 15.8721 32.235 18.4439C33.9498 21.9953 35.297 25.6693 36.2769 29.4657C37.5016 33.8744 37.1342 38.6505 37.2567 43.3041C37.3792 53.3462 37.7466 63.2658 37.8691 73.3078C36.3993 72.9404 34.8071 73.0629 33.4598 73.3078C32.3575 73.4303 32.8474 75.1448 33.9498 75.0223C35.1745 74.7774 37.0117 74.6549 38.114 75.2673C39.3388 76.002 39.9512 77.7165 40.3187 78.8187C40.8086 80.2883 41.2985 81.6354 41.6659 83.105C43.1357 88.2485 45.7077 93.8818 43.7481 99.5152Z" fill="#B8B8B8"/>
</svg>
