<svg width="25" height="25" viewBox="0 0 25 25" fill="none" xmlns="http://www.w3.org/2000/svg">
<path d="M12.5 1.78571C18.3929 1.78571 23.2143 6.60714 23.2143 12.5C23.2143 18.3929 18.3929 23.2143 12.5 23.2143C6.60714 23.2143 1.78571 18.3929 1.78571 12.5C1.78571 6.60714 6.60714 1.78571 12.5 1.78571ZM12.5 0C5.625 0 0 5.625 0 12.5C0 19.375 5.625 25 12.5 25C19.375 25 25 19.375 25 12.5C25 5.625 19.375 0 12.5 0Z" fill="#27AE60"/>
<path d="M19.6431 11.6072H13.3931V5.35718H11.6074V11.6072H5.35742V13.3929H11.6074V19.6429H13.3931V13.3929H19.6431V11.6072Z" fill="#27AE60"/>
</svg>
