<svg width="26" height="23" viewBox="0 0 26 23" fill="none" xmlns="http://www.w3.org/2000/svg">
<path d="M3.85889 5.82227H21.9961L20.205 20.0423C20.1436 20.5316 19.8798 20.9838 19.464 21.3123C19.0481 21.6407 18.5096 21.8223 17.9515 21.8223H7.90348C7.34535 21.8223 6.80682 21.6407 6.39101 21.3123C5.97519 20.9838 5.71133 20.5316 5.64993 20.0423L3.85889 5.82227Z" stroke="#EB5757" stroke-width="2" stroke-linecap="round" stroke-linejoin="round"/>
<path d="M7.65063 2.96927C7.83399 2.62623 8.12413 2.33626 8.48722 2.13318C8.8503 1.93009 9.27135 1.82226 9.70127 1.82227H16.1536C16.5837 1.82207 17.005 1.92981 17.3683 2.13291C17.7316 2.33601 18.0219 2.62608 18.2053 2.96927L19.7289 5.82227H6.12598L7.65063 2.96927Z" stroke="#EB5757" stroke-width="2" stroke-linecap="round" stroke-linejoin="round"/>
<path d="M1.5918 5.82227H24.2633" stroke="#EB5757" stroke-width="2" stroke-linecap="round" stroke-linejoin="round"/>
<path d="M10.6604 10.8223V15.8223" stroke="#EB5757" stroke-width="2" stroke-linecap="round" stroke-linejoin="round"/>
<path d="M15.1948 10.8223V15.8223" stroke="#EB5757" stroke-width="2" stroke-linecap="round" stroke-linejoin="round"/>
</svg>
