<svg width="61" height="58" viewBox="0 0 61 58" fill="none" xmlns="http://www.w3.org/2000/svg">
<path d="M47.4445 48.3223H10.1667V13.4889H32.5673L35.9562 10.3223H10.1667C9.26793 10.3223 8.40595 10.6559 7.77041 11.2498C7.13487 11.8436 6.77783 12.6491 6.77783 13.4889V48.3223C6.77783 49.1621 7.13487 49.9676 7.77041 50.5614C8.40595 51.1553 9.26793 51.4889 10.1667 51.4889H47.4445C48.3433 51.4889 49.2053 51.1553 49.8408 50.5614C50.4763 49.9676 50.8334 49.1621 50.8334 48.3223V24.5723L47.4445 27.7389V48.3223Z" fill="#407DDA"/>
<path d="M56.8147 10.0688L51.1044 4.73299C50.851 4.49554 50.5499 4.30714 50.2184 4.1786C49.887 4.05005 49.5316 3.98389 49.1727 3.98389C48.8138 3.98389 48.4585 4.05005 48.127 4.1786C47.7955 4.30714 47.4945 4.49554 47.2411 4.73299L24.0102 26.5672L22.1294 34.183C22.0493 34.5522 22.0577 34.9333 22.1541 35.2991C22.2504 35.6649 22.4323 36.0061 22.6867 36.2983C22.9411 36.5905 23.2616 36.8264 23.6253 36.9891C23.9889 37.1517 24.3865 37.237 24.7897 37.2388C24.998 37.2603 25.2083 37.2603 25.4166 37.2388L33.6347 35.5447L56.8147 13.6788C57.0688 13.442 57.2704 13.1607 57.408 12.851C57.5455 12.5412 57.6163 12.2092 57.6163 11.8738C57.6163 11.5385 57.5455 11.2064 57.408 10.8967C57.2704 10.587 57.0688 10.3056 56.8147 10.0688ZM31.8724 32.6155L25.6708 33.898L27.1111 28.1505L44.5977 11.6997L49.3761 16.1647L31.8724 32.6155ZM51.2908 14.3755L46.5124 9.91049L49.1388 7.40882L53.9511 11.9055L51.2908 14.3755Z" fill="#407DDA"/>
</svg>
