<svg width="55" height="52" viewBox="0 0 55 52" fill="none" xmlns="http://www.w3.org/2000/svg">
<path d="M55 23.1348H48.125V16.7598H44.6875V23.1348H37.8125V26.3223H44.6875V32.6973H48.125V26.3223H55V23.1348Z" fill="#407DDA"/>
<path d="M20.625 7.19727C22.3247 7.19727 23.9862 7.66462 25.3994 8.54024C26.8127 9.41586 27.9142 10.6604 28.5646 12.1165C29.215 13.5726 29.3852 15.1749 29.0536 16.7206C28.722 18.2664 27.9036 19.6863 26.7017 20.8008C25.4998 21.9152 23.9686 22.6742 22.3016 22.9816C20.6345 23.2891 18.9066 23.1313 17.3363 22.5282C15.766 21.925 14.4239 20.9037 13.4796 19.5932C12.5353 18.2828 12.0313 16.7421 12.0313 15.166C12.0313 13.0526 12.9367 11.0257 14.5483 9.53126C16.1599 8.03683 18.3458 7.19727 20.625 7.19727ZM20.625 4.00977C18.2455 4.00977 15.9193 4.66407 13.9408 5.88993C11.9623 7.1158 10.4202 8.85817 9.50958 10.8967C8.59896 12.9352 8.3607 15.1784 8.82493 17.3425C9.28916 19.5066 10.435 21.4944 12.1176 23.0547C13.8002 24.6149 15.944 25.6774 18.2778 26.1079C20.6117 26.5384 23.0307 26.3174 25.2292 25.473C27.4276 24.6287 29.3066 23.1987 30.6286 21.3641C31.9506 19.5295 32.6563 17.3725 32.6563 15.166C32.6563 12.2072 31.3887 9.36956 29.1324 7.27736C26.8761 5.18515 23.8159 4.00977 20.625 4.00977Z" fill="#407DDA"/>
<path d="M37.8125 48.6348H34.375V40.666C34.375 38.5526 33.4696 36.5257 31.8579 35.0313C30.2463 33.5368 28.0605 32.6973 25.7812 32.6973H15.4688C13.1895 32.6973 11.0037 33.5368 9.39205 35.0313C7.78041 36.5257 6.875 38.5526 6.875 40.666V48.6348H3.4375V40.666C3.4375 37.7072 4.70507 34.8696 6.96137 32.7774C9.21767 30.6852 12.2779 29.5098 15.4688 29.5098H25.7812C28.9721 29.5098 32.0323 30.6852 34.2886 32.7774C36.5449 34.8696 37.8125 37.7072 37.8125 40.666V48.6348Z" fill="#407DDA"/>
</svg>
