<svg width="62" height="59" viewBox="0 0 62 59" fill="none" xmlns="http://www.w3.org/2000/svg">
<path fill-rule="evenodd" clip-rule="evenodd" d="M49.5418 55.364C51.8072 55.364 53.9798 54.519 55.5817 53.0148C57.1836 51.5106 58.0835 49.4704 58.0835 47.3432C58.0835 45.2159 57.1836 43.1758 55.5817 41.6716C53.9798 40.1674 51.8072 39.3223 49.5418 39.3223C47.2764 39.3223 45.1038 40.1674 43.502 41.6716C41.9001 43.1758 41.0002 45.2159 41.0002 47.3432C41.0002 49.4704 41.9001 51.5106 43.502 53.0148C45.1038 54.519 47.2764 55.364 49.5418 55.364ZM49.5418 58.5723C52.7134 58.5723 55.755 57.3893 57.9977 55.2834C60.2403 53.1775 61.5002 50.3213 61.5002 47.3432C61.5002 44.365 60.2403 41.5088 57.9977 39.403C55.755 37.2971 52.7134 36.114 49.5418 36.114C46.3703 36.114 43.3286 37.2971 41.086 39.403C38.8434 41.5088 37.5835 44.365 37.5835 47.3432C37.5835 50.3213 38.8434 53.1775 41.086 55.2834C43.3286 57.3893 46.3703 58.5723 49.5418 58.5723Z" fill="#407DDA"/>
<path fill-rule="evenodd" clip-rule="evenodd" d="M49.5418 41.7285C49.9949 41.7285 50.4294 41.8975 50.7498 42.1984C51.0702 42.4992 51.2502 42.9072 51.2502 43.3327V46.679L52.458 47.8131C52.7691 48.1157 52.9413 48.5209 52.9374 48.9415C52.9336 49.3621 52.7539 49.7645 52.4372 50.0619C52.1204 50.3593 51.6919 50.528 51.244 50.5317C50.7961 50.5353 50.3646 50.3736 50.0424 50.0814L47.8335 48.0072V43.3327C47.8335 42.9072 48.0135 42.4992 48.3339 42.1984C48.6542 41.8975 49.0888 41.7285 49.5418 41.7285Z" fill="#407DDA"/>
<path fill-rule="evenodd" clip-rule="evenodd" d="M13.6668 28.0931H10.2502V31.3014H13.6668V28.0931ZM10.2502 24.8848C9.34401 24.8848 8.47496 25.2228 7.83422 25.8245C7.19347 26.4261 6.8335 27.2422 6.8335 28.0931V31.3014C6.8335 32.1523 7.19347 32.9684 7.83422 33.5701C8.47496 34.1717 9.34401 34.5098 10.2502 34.5098H13.6668C14.573 34.5098 15.442 34.1717 16.0828 33.5701C16.7235 32.9684 17.0835 32.1523 17.0835 31.3014V28.0931C17.0835 27.2422 16.7235 26.4261 16.0828 25.8245C15.442 25.2228 14.573 24.8848 13.6668 24.8848H10.2502Z" fill="#407DDA"/>
<path fill-rule="evenodd" clip-rule="evenodd" d="M27.3333 28.0931H23.9167V31.3014H27.3333V28.0931ZM23.9167 24.8848C23.0105 24.8848 22.1415 25.2228 21.5007 25.8245C20.86 26.4261 20.5 27.2422 20.5 28.0931V31.3014C20.5 32.1523 20.86 32.9684 21.5007 33.5701C22.1415 34.1717 23.0105 34.5098 23.9167 34.5098H27.3333C28.2395 34.5098 29.1085 34.1717 29.7493 33.5701C30.39 32.9684 30.75 32.1523 30.75 31.3014V28.0931C30.75 27.2422 30.39 26.4261 29.7493 25.8245C29.1085 25.2228 28.2395 24.8848 27.3333 24.8848H23.9167Z" fill="#407DDA"/>
<path fill-rule="evenodd" clip-rule="evenodd" d="M40.9998 28.0931H37.5832V31.3014H40.9998V28.0931ZM37.5832 24.8848C36.677 24.8848 35.808 25.2228 35.1672 25.8245C34.5265 26.4261 34.1665 27.2422 34.1665 28.0931V31.3014C34.1665 32.1523 34.5265 32.9684 35.1672 33.5701C35.808 34.1717 36.677 34.5098 37.5832 34.5098H40.9998C41.906 34.5098 42.775 34.1717 43.4158 33.5701C44.0565 32.9684 44.4165 32.1523 44.4165 31.3014V28.0931C44.4165 27.2422 44.0565 26.4261 43.4158 25.8245C42.775 25.2228 41.906 24.8848 40.9998 24.8848H37.5832Z" fill="#407DDA"/>
<path fill-rule="evenodd" clip-rule="evenodd" d="M13.6668 40.9264H10.2502V44.1347H13.6668V40.9264ZM10.2502 37.718C9.34401 37.718 8.47496 38.056 7.83422 38.6577C7.19347 39.2594 6.8335 40.0754 6.8335 40.9264V44.1347C6.8335 44.9856 7.19347 45.8016 7.83422 46.4033C8.47496 47.005 9.34401 47.343 10.2502 47.343H13.6668C14.573 47.343 15.442 47.005 16.0828 46.4033C16.7235 45.8016 17.0835 44.9856 17.0835 44.1347V40.9264C17.0835 40.0754 16.7235 39.2594 16.0828 38.6577C15.442 38.056 14.573 37.718 13.6668 37.718H10.2502Z" fill="#407DDA"/>
<path fill-rule="evenodd" clip-rule="evenodd" d="M27.3333 40.9264H23.9167V44.1347H27.3333V40.9264ZM23.9167 37.718C23.0105 37.718 22.1415 38.056 21.5007 38.6577C20.86 39.2594 20.5 40.0754 20.5 40.9264V44.1347C20.5 44.9856 20.86 45.8016 21.5007 46.4033C22.1415 47.005 23.0105 47.343 23.9167 47.343H27.3333C28.2395 47.343 29.1085 47.005 29.7493 46.4033C30.39 45.8016 30.75 44.9856 30.75 44.1347V40.9264C30.75 40.0754 30.39 39.2594 29.7493 38.6577C29.1085 38.056 28.2395 37.718 27.3333 37.718H23.9167Z" fill="#407DDA"/>
<path fill-rule="evenodd" clip-rule="evenodd" d="M3.41667 10.4473C3.41667 10.0218 3.59665 9.61379 3.91703 9.31295C4.2374 9.01211 4.67192 8.8431 5.125 8.8431H13.6667V5.63477H5.125C3.76577 5.63477 2.4622 6.14179 1.50108 7.04431C0.539954 7.94683 0 9.17091 0 10.4473V48.9473C0 50.2236 0.539954 51.4477 1.50108 52.3502C2.4622 53.2527 3.76577 53.7598 5.125 53.7598H39.7273C38.9988 52.7799 38.4422 51.6967 38.0788 50.5514H5.125C4.67192 50.5514 4.2374 50.3824 3.91703 50.0816C3.59665 49.7807 3.41667 49.3727 3.41667 48.9473V10.4473ZM47.8333 36.2262C48.9665 36.074 50.1169 36.074 51.25 36.2262V10.4473C51.25 9.17091 50.71 7.94683 49.7489 7.04431C48.7878 6.14179 47.4842 5.63477 46.125 5.63477H41V8.8431H46.125C46.5781 8.8431 47.0126 9.01211 47.333 9.31295C47.6534 9.61379 47.8333 10.0218 47.8333 10.4473V36.2262ZM17.0833 8.8431H35.1285V5.63477H17.0833V8.8431Z" fill="#407DDA"/>
<path fill-rule="evenodd" clip-rule="evenodd" d="M51.2498 20.0723H3.4165V16.864H51.2498V20.0723Z" fill="#407DDA"/>
<path d="M10.25 2.42643C10.25 2.00098 10.43 1.59296 10.7504 1.29212C11.0707 0.991276 11.5053 0.822266 11.9583 0.822266C12.4114 0.822266 12.8459 0.991276 13.1663 1.29212C13.4867 1.59296 13.6667 2.00098 13.6667 2.42643V10.4473C13.6667 10.8727 13.4867 11.2807 13.1663 11.5816C12.8459 11.8824 12.4114 12.0514 11.9583 12.0514C11.5053 12.0514 11.0707 11.8824 10.7504 11.5816C10.43 11.2807 10.25 10.8727 10.25 10.4473V2.42643Z" fill="#407DDA"/>
<path d="M34.1665 2.42643C34.1665 2.00098 34.3465 1.59296 34.6669 1.29212C34.9872 0.991276 35.4218 0.822266 35.8748 0.822266C36.3279 0.822266 36.7624 0.991276 37.0828 1.29212C37.4032 1.59296 37.5832 2.00098 37.5832 2.42643V10.4473C37.5832 10.8727 37.4032 11.2807 37.0828 11.5816C36.7624 11.8824 36.3279 12.0514 35.8748 12.0514C35.4218 12.0514 34.9872 11.8824 34.6669 11.5816C34.3465 11.2807 34.1665 10.8727 34.1665 10.4473V2.42643Z" fill="#407DDA"/>
</svg>
