<svg width="22" height="20" viewBox="0 0 22 20" fill="none" xmlns="http://www.w3.org/2000/svg">
<path d="M15.3209 4.23009L17.7218 6.34709L15.3209 4.23009ZM16.8648 2.36509L10.3729 8.09209C10.0374 8.38759 9.80865 8.76408 9.71538 9.17409L9.11572 11.8221L12.1174 11.2921C12.5822 11.2101 13.0084 11.0091 13.344 10.7131L19.8359 4.98609C20.031 4.814 20.1858 4.60969 20.2913 4.38483C20.3969 4.15997 20.4513 3.91897 20.4513 3.67559C20.4513 3.43221 20.3969 3.19121 20.2913 2.96635C20.1858 2.7415 20.031 2.53719 19.8359 2.36509C19.6408 2.193 19.4092 2.05648 19.1544 1.96334C18.8995 1.8702 18.6263 1.82227 18.3504 1.82227C18.0745 1.82227 17.8013 1.8702 17.5464 1.96334C17.2915 2.05648 17.0599 2.193 16.8648 2.36509V2.36509Z" stroke="#407DDA" stroke-width="2" stroke-linecap="round" stroke-linejoin="round"/>
<path d="M18.1843 13.8223V16.8223C18.1843 17.3527 17.9454 17.8614 17.5202 18.2365C17.0951 18.6116 16.5184 18.8223 15.9171 18.8223H3.44781C2.84653 18.8223 2.26987 18.6116 1.8447 18.2365C1.41952 17.8614 1.18066 17.3527 1.18066 16.8223V5.82227C1.18066 5.29183 1.41952 4.78312 1.8447 4.40805C2.26987 4.03298 2.84653 3.82227 3.44781 3.82227H6.84853" stroke="#407DDA" stroke-width="2" stroke-linecap="round" stroke-linejoin="round"/>
</svg>
