<svg width="55" height="56" viewBox="0 0 55 56" fill="none" xmlns="http://www.w3.org/2000/svg">
<path d="M4.58325 16.8639C4.58325 15.6483 5.06614 14.4825 5.92568 13.6229C6.78522 12.7634 7.95101 12.2805 9.16659 12.2805H45.8333C47.0488 12.2805 48.2146 12.7634 49.0742 13.6229C49.9337 14.4825 50.4166 15.6483 50.4166 16.8639V39.7805C50.4166 40.9961 49.9337 42.1619 49.0742 43.0214C48.2146 43.881 47.0488 44.3639 45.8333 44.3639H9.16659C7.95101 44.3639 6.78522 43.881 5.92568 43.0214C5.06614 42.1619 4.58325 40.9961 4.58325 39.7805V16.8639Z" stroke="#407DDA" stroke-width="3" stroke-linecap="round" stroke-linejoin="round"/>
<path d="M27.5 35.1973C31.297 35.1973 34.375 32.1192 34.375 28.3223C34.375 24.5253 31.297 21.4473 27.5 21.4473C23.703 21.4473 20.625 24.5253 20.625 28.3223C20.625 32.1192 23.703 35.1973 27.5 35.1973Z" stroke="#407DDA" stroke-width="3" stroke-linecap="round" stroke-linejoin="round"/>
<path d="M4.58325 21.4472C7.0144 21.4472 9.34598 20.4814 11.0651 18.7623C12.7841 17.0432 13.7499 14.7117 13.7499 12.2805" stroke="#407DDA" stroke-width="3" stroke-linecap="round" stroke-linejoin="round"/>
<path d="M41.25 44.3639C41.25 41.9328 42.2158 39.6012 43.9349 37.8821C45.6539 36.163 47.9855 35.1973 50.4167 35.1973" stroke="#407DDA" stroke-width="3" stroke-linecap="round" stroke-linejoin="round"/>
</svg>
