<svg width="18" height="21" viewBox="0 0 18 21" fill="none" xmlns="http://www.w3.org/2000/svg">
<path d="M8.75789 20.8081C13.4577 20.8081 17.2816 16.9909 17.2816 12.2995C17.2816 8.73645 15.074 5.6829 11.9543 4.41724V6.78158C12.9249 7.34094 13.7311 8.14516 14.2921 9.11362C14.8531 10.0821 15.1492 11.1807 15.1507 12.2995C15.1507 15.8189 12.2835 18.681 8.75789 18.681C5.23225 18.681 2.36507 15.8189 2.36507 12.2995C2.36649 11.1807 2.66255 10.082 3.22357 9.11354C3.78459 8.14506 4.59085 7.34086 5.56148 6.78158V4.41724C2.44178 5.6829 0.234131 8.73645 0.234131 12.2995C0.234131 16.9909 4.0581 20.8081 8.75789 20.8081Z" fill="#C0D9FF"/>
<path d="M7.69238 0.600098H9.82332V11.2359H7.69238V0.600098Z" fill="#C0D9FF"/>
</svg>
