<svg width="25" height="25" viewBox="0 0 25 25" fill="none" xmlns="http://www.w3.org/2000/svg">
<path d="M8.03544 11.6069H16.964C17.2008 11.6069 17.4279 11.701 17.5954 11.8684C17.7628 12.0359 17.8569 12.263 17.8569 12.4998C17.8569 12.7366 17.7628 12.9637 17.5954 13.1311C17.4279 13.2986 17.2008 13.3926 16.964 13.3926H8.03544C7.79863 13.3926 7.57153 13.2986 7.40409 13.1311C7.23665 12.9637 7.14258 12.7366 7.14258 12.4998C7.14258 12.263 7.23665 12.0359 7.40409 11.8684C7.57153 11.701 7.79863 11.6069 8.03544 11.6069Z" fill="#EB5757"/>
<path d="M12.5 23.2143C13.907 23.2143 15.3003 22.9372 16.6002 22.3987C17.9001 21.8603 19.0812 21.0711 20.0761 20.0761C21.0711 19.0812 21.8603 17.9001 22.3987 16.6002C22.9372 15.3003 23.2143 13.907 23.2143 12.5C23.2143 11.093 22.9372 9.69974 22.3987 8.39982C21.8603 7.0999 21.0711 5.91877 20.0761 4.92386C19.0812 3.92894 17.9001 3.13973 16.6002 2.60129C15.3003 2.06285 13.907 1.78571 12.5 1.78571C9.65839 1.78571 6.93317 2.91454 4.92386 4.92386C2.91454 6.93317 1.78571 9.65839 1.78571 12.5C1.78571 15.3416 2.91454 18.0668 4.92386 20.0761C6.93317 22.0855 9.65839 23.2143 12.5 23.2143ZM12.5 25C9.18479 25 6.00537 23.683 3.66116 21.3388C1.31696 18.9946 0 15.8152 0 12.5C0 9.18479 1.31696 6.00537 3.66116 3.66116C6.00537 1.31696 9.18479 0 12.5 0C15.8152 0 18.9946 1.31696 21.3388 3.66116C23.683 6.00537 25 9.18479 25 12.5C25 15.8152 23.683 18.9946 21.3388 21.3388C18.9946 23.683 15.8152 25 12.5 25Z" fill="#EB5757"/>
</svg>
