<svg width="51" height="49" viewBox="0 0 51 49" fill="none" xmlns="http://www.w3.org/2000/svg">
<path d="M25.4999 15.0842C24.1412 15.0842 22.7958 15.3361 21.5405 15.8255C20.2852 16.3149 19.1446 17.0322 18.1838 17.9364C17.223 18.8407 16.4609 19.9142 15.9409 21.0957C15.4209 22.2771 15.1533 23.5434 15.1533 24.8222C15.1533 26.101 15.4209 27.3673 15.9409 28.5488C16.4609 29.7303 17.223 30.8038 18.1838 31.708C19.1446 32.6123 20.2852 33.3296 21.5405 33.819C22.7958 34.3083 24.1412 34.5602 25.4999 34.5602C28.244 34.5602 30.8757 33.5343 32.8161 31.708C34.7565 29.8818 35.8466 27.4049 35.8466 24.8222C35.8466 22.2396 34.7565 19.7627 32.8161 17.9364C30.8757 16.1102 28.244 15.0842 25.4999 15.0842V15.0842ZM18.3408 24.8222C18.3408 23.0352 19.0951 21.3214 20.4377 20.0577C21.7803 18.7941 23.6012 18.0842 25.4999 18.0842C27.3987 18.0842 29.2196 18.7941 30.5622 20.0577C31.9048 21.3214 32.6591 23.0352 32.6591 24.8222C32.6591 26.6093 31.9048 28.3231 30.5622 29.5867C29.2196 30.8503 27.3987 31.5602 25.4999 31.5602C23.6012 31.5602 21.7803 30.8503 20.4377 29.5867C19.0951 28.3231 18.3408 26.6093 18.3408 24.8222Z" fill="#407DDA"/>
<path d="M31.2236 4.85025C29.5438 -0.519746 21.454 -0.519746 19.7741 4.85025L19.4745 5.80725C19.3572 6.18211 19.1523 6.52751 18.8747 6.81813C18.5971 7.10875 18.254 7.33723 17.8704 7.48681C17.4868 7.63639 17.0725 7.70329 16.6579 7.68261C16.2433 7.66192 15.8388 7.55417 15.4742 7.36725L14.5435 6.88725C9.31596 4.21125 3.60077 9.59325 6.44721 14.5103L6.95402 15.3863C7.15262 15.7294 7.2671 16.1101 7.28908 16.5003C7.31106 16.8905 7.23998 17.2805 7.08105 17.6415C6.92211 18.0025 6.67936 18.3255 6.37057 18.5867C6.06179 18.8479 5.6948 19.0408 5.29652 19.1513L4.27971 19.4333C-1.42592 21.0143 -1.42592 28.6283 4.27971 30.2093L5.29652 30.4913C5.6948 30.6017 6.06179 30.7946 6.37057 31.0558C6.67936 31.317 6.92211 31.64 7.08105 32.001C7.23998 32.362 7.31106 32.752 7.28908 33.1422C7.2671 33.5324 7.15262 33.9131 6.95402 34.2563L6.44402 35.1323C3.60077 40.0523 9.31596 45.4343 14.5435 42.7523L15.4742 42.2753C15.8388 42.0883 16.2433 41.9806 16.6579 41.9599C17.0725 41.9392 17.4868 42.0061 17.8704 42.1557C18.254 42.3053 18.5971 42.5338 18.8747 42.8244C19.1523 43.115 19.3572 43.4604 19.4745 43.8353L19.7741 44.7923C21.454 50.1623 29.5438 50.1623 31.2236 44.7923L31.5233 43.8353C31.6406 43.4604 31.8455 43.115 32.1231 42.8244C32.4007 42.5338 32.7438 42.3053 33.1274 42.1557C33.511 42.0061 33.9253 41.9392 34.3399 41.9599C34.7545 41.9806 35.159 42.0883 35.5236 42.2753L36.4543 42.7553C41.6818 45.4343 47.4002 40.0493 44.5506 35.1323L44.0438 34.2563C43.8452 33.9131 43.7307 33.5324 43.7087 33.1422C43.6867 32.752 43.7578 32.362 43.9167 32.001C44.0757 31.64 44.3184 31.317 44.6272 31.0558C44.936 30.7946 45.303 30.6017 45.7013 30.4913L46.7181 30.2093C52.4237 28.6283 52.4237 21.0143 46.7181 19.4333L45.7013 19.1513C45.303 19.0408 44.936 18.8479 44.6272 18.5867C44.3184 18.3255 44.0757 18.0025 43.9167 17.6415C43.7578 17.2805 43.6867 16.8905 43.7087 16.5003C43.7307 16.1101 43.8452 15.7294 44.0438 15.3863L44.5538 14.5103C47.4002 9.59025 41.6786 4.21125 36.4543 6.89025L35.5236 7.36725C35.159 7.55417 34.7545 7.66192 34.3399 7.68261C33.9253 7.70329 33.511 7.63639 33.1274 7.48681C32.7438 7.33723 32.4007 7.10875 32.1231 6.81813C31.8455 6.52751 31.6406 6.18211 31.5233 5.80725L31.2236 4.85025V4.85025ZM22.831 5.69925C23.6151 3.19425 27.3827 3.19425 28.1668 5.69925L28.4665 6.65625C28.7183 7.46051 29.1583 8.20152 29.754 8.82495C30.3497 9.44839 31.0861 9.93844 31.9092 10.2592C32.7323 10.5799 33.6212 10.7233 34.5109 10.6786C35.4005 10.634 36.2682 10.4025 37.0504 10.0013L37.978 9.52125C40.4132 8.27625 43.078 10.7813 41.752 13.0763L41.2451 13.9523C40.8194 14.6885 40.5741 15.5051 40.5272 16.3422C40.4803 17.1793 40.633 18.0157 40.974 18.79C41.3151 19.5644 41.836 20.2571 42.4984 20.8174C43.1608 21.3777 43.948 21.7914 44.8024 22.0283L45.816 22.3103C48.4776 23.0483 48.4776 26.5943 45.816 27.3323L44.7992 27.6143C43.9447 27.8513 43.1574 28.2654 42.495 28.826C41.8326 29.3867 41.3119 30.0798 40.9711 30.8545C40.6303 31.6292 40.478 32.4658 40.5254 33.3031C40.5729 34.1404 40.8188 34.9571 41.2451 35.6933L41.7551 36.5663C43.078 38.8583 40.4164 41.3663 37.978 40.1183L37.0504 39.6413C36.268 39.24 35.4 39.0087 34.5103 38.9642C33.6205 38.9198 32.7314 39.0634 31.9083 39.3844C31.0851 39.7055 30.3488 40.1959 29.7532 40.8196C29.1576 41.4434 28.718 42.1847 28.4665 42.9893L28.1668 43.9433C27.3827 46.4483 23.6151 46.4483 22.831 43.9433L22.5313 42.9863C22.2793 42.1824 21.8395 41.4418 21.244 40.8187C20.6485 40.1956 19.9125 39.7057 19.0898 39.385C18.2671 39.0643 17.3786 38.9209 16.4893 38.9652C15.6001 39.0095 14.7327 39.2405 13.9506 39.6413L13.0198 40.1213C10.5846 41.3663 7.91983 38.8613 9.24583 36.5663L9.75264 35.6933C10.1796 34.9569 10.426 34.14 10.4737 33.3024C10.5215 32.4647 10.3693 31.6277 10.0285 30.8526C9.68766 30.0775 9.16676 29.3841 8.50403 28.8232C7.8413 28.2623 7.05355 27.8482 6.19858 27.6113L5.18177 27.3293C2.52021 26.5913 2.52021 23.0453 5.18177 22.3073L6.19858 22.0253C7.05221 21.788 7.83868 21.3741 8.50041 20.8138C9.16214 20.2536 9.6824 19.5611 10.0231 18.7872C10.3638 18.0133 10.5164 17.1775 10.4696 16.3409C10.4228 15.5043 10.1778 14.6882 9.75264 13.9523L9.24264 13.0763C7.91983 10.7843 10.5814 8.27625 13.0198 9.52425L13.9506 10.0013C14.7327 10.402 15.6001 10.633 16.4893 10.6773C17.3786 10.7217 18.2671 10.5782 19.0898 10.2575C19.9125 9.93679 20.6485 9.44694 21.244 8.82382C21.8395 8.20069 22.2793 7.46009 22.5313 6.65625L22.831 5.69925V5.69925Z" fill="#407DDA"/>
</svg>
