<svg width="55" height="44" viewBox="0 0 55 44" fill="none" xmlns="http://www.w3.org/2000/svg">
<path d="M49 43.6444H5.44445C4.00301 43.636 2.62293 43.0372 1.60367 41.978C0.584399 40.9188 0.00816698 39.4847 0 37.9868V5.65761C0.00816698 4.15974 0.584399 2.72563 1.60367 1.66645C2.62293 0.60728 4.00301 0.00848674 5.44445 0H49C50.4414 0.00848674 51.8215 0.60728 52.8408 1.66645C53.8601 2.72563 54.4363 4.15974 54.4445 5.65761V37.9868C54.4363 39.4847 53.8601 40.9188 52.8408 41.978C51.8215 43.0372 50.4414 43.636 49 43.6444ZM5.44445 4.84938C5.23817 4.84938 5.04033 4.93453 4.89447 5.08611C4.74861 5.23768 4.66667 5.44326 4.66667 5.65761V37.9868C4.66667 38.2012 4.74861 38.4068 4.89447 38.5583C5.04033 38.7099 5.23817 38.7951 5.44445 38.7951H49C49.2063 38.7951 49.4041 38.7099 49.55 38.5583C49.6958 38.4068 49.7778 38.2012 49.7778 37.9868V5.65761C49.7778 5.44326 49.6958 5.23768 49.55 5.08611C49.4041 4.93453 49.2063 4.84938 49 4.84938H5.44445Z" fill="#407DDA"/>
<path d="M17.8888 21.014C16.6582 21.014 15.4552 20.6348 14.4319 19.9243C13.4087 19.2138 12.6112 18.204 12.1402 17.0225C11.6693 15.8411 11.5461 14.541 11.7862 13.2868C12.0262 12.0325 12.6189 10.8804 13.489 9.97614C14.3592 9.07188 15.4679 8.45606 16.6749 8.20658C17.8819 7.95709 19.133 8.08514 20.2699 8.57452C21.4069 9.06391 22.3787 9.89265 23.0624 10.9559C23.7461 12.0193 24.111 13.2694 24.111 14.5482C24.111 16.263 23.4555 17.9076 22.2886 19.1202C21.1217 20.3328 19.539 21.014 17.8888 21.014ZM17.8888 12.9317C17.5812 12.9317 17.2804 13.0265 17.0246 13.2041C16.7688 13.3818 16.5694 13.6342 16.4517 13.9296C16.3339 14.225 16.3031 14.55 16.3631 14.8635C16.4232 15.1771 16.5713 15.4651 16.7889 15.6912C17.0064 15.9173 17.2836 16.0712 17.5853 16.1336C17.8871 16.1959 18.1999 16.1639 18.4841 16.0416C18.7683 15.9192 19.0113 15.7121 19.1822 15.4462C19.3531 15.1804 19.4444 14.8679 19.4444 14.5482C19.4444 14.1195 19.2805 13.7083 18.9888 13.4052C18.697 13.102 18.3014 12.9317 17.8888 12.9317Z" fill="#407DDA"/>
<path d="M27.2223 33.9458C26.6059 33.9374 26.0171 33.6792 25.5813 33.2263C25.1454 32.7734 24.897 32.1615 24.8889 31.5211C24.8889 29.3227 24.36 27.4799 17.8889 27.4799C11.4178 27.4799 10.8889 29.3227 10.8889 31.5211C10.8889 32.1641 10.6431 32.7809 10.2055 33.2356C9.76793 33.6903 9.17443 33.9458 8.55559 33.9458C7.93676 33.9458 7.34326 33.6903 6.90568 33.2356C6.46809 32.7809 6.22226 32.1641 6.22226 31.5211C6.22226 22.6305 14.9956 22.6305 17.8889 22.6305C20.7823 22.6305 29.5556 22.6305 29.5556 31.5211C29.5475 32.1615 29.2991 32.7734 28.8633 33.2263C28.4274 33.6792 27.8386 33.9374 27.2223 33.9458Z" fill="#407DDA"/>
<path d="M42.7778 17.7809H33.4444C32.8256 17.7809 32.2321 17.5254 31.7945 17.0707C31.3569 16.616 31.1111 15.9993 31.1111 15.3562C31.1111 14.7131 31.3569 14.0964 31.7945 13.6417C32.2321 13.187 32.8256 12.9315 33.4444 12.9315H42.7778C43.3966 12.9315 43.9901 13.187 44.4277 13.6417C44.8653 14.0964 45.1111 14.7131 45.1111 15.3562C45.1111 15.9993 44.8653 16.616 44.4277 17.0707C43.9901 17.5254 43.3966 17.7809 42.7778 17.7809Z" fill="#407DDA"/>
<path d="M39.6666 27.4799H33.4444C32.8256 27.4799 32.2321 27.2244 31.7945 26.7697C31.3569 26.315 31.1111 25.6983 31.1111 25.0552C31.1111 24.4121 31.3569 23.7954 31.7945 23.3407C32.2321 22.886 32.8256 22.6305 33.4444 22.6305H39.6666C40.2855 22.6305 40.879 22.886 41.3166 23.3407C41.7541 23.7954 42 24.4121 42 25.0552C42 25.6983 41.7541 26.315 41.3166 26.7697C40.879 27.2244 40.2855 27.4799 39.6666 27.4799Z" fill="#407DDA"/>
</svg>
