<svg width="38" height="48" viewBox="0 0 38 48" fill="none" xmlns="http://www.w3.org/2000/svg">
<path d="M35.6 27.0956V4.18222C35.6 3.60346 35.3788 3.0484 34.985 2.63916C34.5911 2.22991 34.057 2 33.5 2H4.1C3.54305 2 3.0089 2.22991 2.61508 2.63916C2.22125 3.0484 2 3.60346 2 4.18222V43.4622C2 44.041 2.22125 44.596 2.61508 45.0053C3.0089 45.4145 3.54305 45.6444 4.1 45.6444H15.65" stroke="#407DDA" stroke-width="3" stroke-linecap="round" stroke-linejoin="round"/>
<path d="M11.45 10.7289H26.1499" stroke="#407DDA" stroke-width="3" stroke-linecap="round" stroke-linejoin="round"/>
<path d="M11.45 19.4578H26.1499" stroke="#407DDA" stroke-width="3" stroke-linecap="round" stroke-linejoin="round"/>
<path d="M11.45 28.1866H17.7499" stroke="#407DDA" stroke-width="3" stroke-linecap="round" stroke-linejoin="round"/>
<path d="M31.45 38.0066V38.0064C31.4502 36.9655 31.1028 35.9614 30.474 35.165C29.8459 34.3694 28.978 33.8319 28.0226 33.6342C27.0677 33.4367 26.075 33.5885 25.2114 34.0679C24.3468 34.5479 23.6607 35.3296 23.2788 36.2873C22.8967 37.2455 22.8457 38.314 23.1357 39.3082C23.4257 40.302 24.0358 41.1522 24.853 41.7198C25.6692 42.2867 26.6439 42.5389 27.6121 42.44L27.7137 43.4348L27.6121 42.44C28.5805 42.3411 29.4928 41.8957 30.1912 41.1703L31.45 38.0066ZM31.45 38.0066C31.45 39.2485 30.9658 40.3653 30.1913 41.1702L31.45 38.0066Z" stroke="#407DDA" stroke-width="2"/>
<path d="M34.5499 45.6444L30.9116 41.8637L34.5499 45.6444ZM30.9116 41.8637C31.4093 41.3595 31.8056 40.7576 32.0776 40.093C32.3496 39.4283 32.492 38.7142 32.4963 37.9919C32.5007 37.2697 32.367 36.5538 32.103 35.8856C31.839 35.2175 31.45 34.6105 30.9585 34.0998C30.467 33.5892 29.8828 33.185 29.2398 32.9107C28.5968 32.6365 27.9078 32.4977 27.2127 32.5023C26.5177 32.5069 25.8305 32.6549 25.1909 32.9377C24.5514 33.2205 23.9722 33.6324 23.487 34.1496C22.5097 35.1744 21.9628 36.5597 21.9661 38.0025C21.9693 39.4452 22.5224 40.8279 23.5043 41.848C24.4862 42.868 25.8169 43.4424 27.2054 43.4453C28.5938 43.4483 29.9268 42.8796 30.9127 41.8637H30.9116Z" stroke="#407DDA" stroke-width="3" stroke-linecap="round" stroke-linejoin="round"/>
</svg>
