<svg width="107" height="112" viewBox="0 0 107 112" fill="none" xmlns="http://www.w3.org/2000/svg">
<path fill-rule="evenodd" clip-rule="evenodd" d="M49.8763 13.7441C50.4687 13.147 75.2744 -11.516 95.9517 7.27782C107.305 17.5922 107.921 29.6609 105.661 41.8264L97.2152 80.6054C94.9954 94.0029 92.7754 98.3283 86.8073 104.756C83.2685 108.573 78.1127 103.356 72.6862 97.8641C67.9843 93.1062 63.0805 88.1455 58.8497 88.675C54.5465 89.2133 50.9111 95.2256 47.4345 100.978C43.4268 107.611 39.6247 113.901 35.2484 111.045C26.4121 105.277 21.7612 96.3882 16.261 81.8801C15.2017 79.0878 13.7065 75.7638 12.0526 72.0981C5.13095 56.7338 -4.50272 35.3594 4.14485 21.7963C14.8267 5.04344 30.1002 0.69334 49.6935 13.6427L49.873 13.7445L49.8763 13.7441ZM41.3056 16.374C34.652 12.9071 29.2643 12.2005 24.9585 13.0734C19.6705 14.1429 14.4968 17.9028 9.74421 25.3618C6.16347 30.973 6.78884 39.6344 10.4241 50.6095C12.1548 55.8369 14.3909 61.0695 16.6039 66.0308C17.079 67.1027 17.5639 68.1734 18.041 69.2349C19.7133 72.9419 21.3271 76.5256 22.4652 79.5255C27.4986 92.8103 31.3242 99.8111 37.2627 104.348C38.235 103.193 39.419 101.391 40.9703 98.845L41.7214 97.6035C43.3067 94.98 45.1831 91.8664 47.1752 89.3169C49.2925 86.6152 52.8603 82.7337 58.0264 82.0901C63.2152 81.4404 67.608 84.4043 70.2617 86.5107C72.7749 88.5072 75.3148 91.0788 77.4583 93.2508L78.4763 94.2798C80.5526 96.3664 82.1122 97.8341 83.3134 98.7205C85.2089 96.5304 86.3958 94.7511 87.3471 92.6027C88.5797 89.8283 89.5819 86.0693 90.6652 79.5225L90.7287 79.1939L99.1541 40.5177C100.188 34.9096 100.446 29.8741 99.4363 25.2942C98.4446 20.8357 96.1739 16.443 91.4898 12.1876C83.7298 5.1319 75.3627 6.03224 67.7754 9.4347C63.9568 11.1507 60.6198 13.4163 58.2024 15.3023C57.2924 16.0083 56.5345 16.6456 55.949 17.1616L69.7312 24.92C70.4984 25.3512 71.0628 26.0696 71.3003 26.917C71.5378 27.7644 71.429 28.6714 70.9978 29.4385C70.5665 30.2057 69.8482 30.7701 69.0008 31.0076C68.1534 31.2452 67.2464 31.1363 66.4792 30.7051L47.0081 19.7431C46.739 19.6152 46.4789 19.4693 46.2295 19.3066L42.0735 16.9689C41.7897 16.8095 41.5309 16.609 41.3056 16.374ZM36.22 105.391L36.2291 105.383L36.2167 105.392L36.22 105.391Z" fill="#6CA6FE"/>
</svg>
